<?xml version="1.0" encoding="UTF-8" standalone="no"?>
<!DOCTYPE svg PUBLIC "-//W3C//DTD SVG 1.1//EN" "http://www.w3.org/Graphics/SVG/1.1/DTD/svg11.dtd">
<svg version="1.1" xmlns="http://www.w3.org/2000/svg" xmlns:xlink="http://www.w3.org/1999/xlink" preserveAspectRatio="xMidYMid meet" viewBox="0 0 640 640" width="640" height="640"><defs><path d="M364.16 546.31C375.85 522.29 379.46 495.13 374.48 468.89C371.88 455.19 365.37 420.95 354.97 366.17C353.36 362.12 352.36 359.59 351.96 358.57C349.1 351.38 341.85 346.93 334.14 347.65C328.63 348.16 326.02 348.4 320.74 348.89C312.82 349.63 306.86 356.45 307.21 364.4C307.22 364.58 307.24 365.03 307.27 365.74C306.15 362.81 305.44 360.98 305.16 360.25C302.35 352.9 294.64 348.66 286.93 350.23C285.25 350.57 288.44 349.92 285.48 350.53C285.48 350.53 271.65 353.34 271.65 353.34C267.48 354.19 270.81 353.51 268.87 353.91C259.66 355.78 254.61 365.76 258.56 374.29C258.82 374.86 259.48 376.28 260.53 378.55C258.41 373.34 257.09 370.09 256.56 368.78C252.61 359.09 242.08 353.84 231.96 356.53C225.74 358.18 225.2 358.33 219.08 359.95C208.84 362.68 202.49 372.92 204.61 383.31C204.82 384.35 205.35 386.96 206.2 391.13C190.38 330.15 180.5 292.04 176.54 276.79C175.07 271.12 172.23 265.9 168.26 261.6C163.21 256.11 166.66 259.86 164.75 257.78C154.63 246.79 136.52 250.05 130.87 263.88C129.7 266.74 132.35 260.25 129.68 266.77C126.65 274.19 126.06 282.39 128 290.17C133.68 312.92 147.88 369.81 170.6 460.83C142.6 437.59 123.38 428.56 112.93 433.73C108.78 435.79 105.79 437.79 103.95 439.74C97.67 446.4 97.56 456.77 103.7 463.56C110.09 470.62 122.09 483.88 129.4 491.96C133.56 496.56 137.31 501.52 140.6 506.78C146.06 515.52 153.83 527.95 158.38 535.22C164.66 545.26 173.15 553.74 183.21 560C196.83 568.47 230.32 589.32 245.92 599.03C249.38 601.18 253.54 601.93 257.54 601.12C275.29 597.5 319.75 588.45 336.86 584.97C342.81 583.75 347.86 579.84 350.52 574.37C356.85 561.36 360.59 553.66 364.16 546.31Z" id="d1TLZ71hZ"></path><path d="M142.16 98.96L69.54 98.96L69.54 282.68L195.83 282.68L195.83 148.42L214.78 148.42C214.78 224.31 214.78 271.74 214.78 290.71C214.78 297.99 208.88 303.88 201.61 303.88C171.41 303.88 93.54 303.88 63.24 303.88C56.26 303.88 50.6 298.22 50.6 291.24C50.6 248.55 50.6 133.52 50.6 90.93C50.6 83.66 56.49 77.76 63.76 77.76C74.22 77.76 100.35 77.76 142.16 77.76L142.16 98.96ZM154.79 136.13L154.79 77.76L214.78 136.13L154.79 136.13Z" id="cptaIoYj"></path><path d="M91.6 192.84L91.61 192.85L83.86 200.9L69.51 185.98L77.25 177.93L83.86 184.79L103.55 164.33L111.3 172.38L91.6 192.84Z" id="m3BU478rN"></path><path d="M91.6 222.25L91.61 222.25L83.86 230.3L69.51 215.39L77.25 207.34L83.86 214.2L103.55 193.73L111.3 201.78L91.6 222.25Z" id="e89ZZxhpag"></path><path d="M91.6 250.9L91.61 250.9L83.86 258.96L69.51 244.04L77.25 235.99L83.86 242.85L103.55 222.39L111.3 230.44L91.6 250.9Z" id="a1TiUm9zQg"></path><path d="M329.47 78.96L256.85 78.96L256.85 262.68L383.15 262.68L383.15 128.42L402.09 128.42C402.09 204.59 402.09 252.2 402.09 271.24C402.09 278.22 396.43 283.88 389.45 283.88C359.14 283.88 282.55 283.88 252.66 283.88C244.51 283.88 237.91 277.28 237.91 269.13C237.91 226.86 237.91 113.52 237.91 70.93C237.91 63.66 243.81 57.76 251.08 57.76C261.53 57.76 287.66 57.76 329.47 57.76L329.47 78.96ZM342.1 116.13L342.1 57.76L402.09 116.13L342.1 116.13Z" id="aCitFfMU8"></path><path d="M513.35 97.96L440.73 97.96L440.73 281.68L567.03 281.68L567.03 147.42L585.97 147.42C585.97 223.03 585.97 270.28 585.97 289.19C585.97 296.75 579.84 302.88 572.28 302.88C542.18 302.88 466.42 302.88 436.53 302.88C428.39 302.88 421.79 296.28 421.79 288.14C421.79 245.87 421.79 133.78 421.79 91.51C421.79 83.36 428.39 76.76 436.54 76.76C446.78 76.76 472.39 76.76 513.35 76.76L513.35 97.96ZM525.98 135.13L525.98 76.76L585.97 135.13L525.98 135.13Z" id="a1pfjUTMn"></path><path d="M279.2 172.84L279.2 172.85L271.46 180.9L257.1 165.98L264.85 157.93L271.45 164.79L291.15 144.33L298.9 152.38L279.2 172.84Z" id="aa7MLxuyd"></path><path d="M279.2 202.25L279.2 202.25L271.46 210.3L257.1 195.39L264.85 187.34L271.45 194.2L291.15 173.73L298.9 181.78L279.2 202.25Z" id="l9rWWfHIV"></path><path d="M279.2 233.14L279.2 233.14L271.46 241.19L257.1 226.28L264.85 218.23L271.45 225.09L291.15 204.63L298.9 212.68L279.2 233.14Z" id="az6mY06X1"></path><path d="M463.08 192.84L463.08 192.85L455.34 200.9L440.99 185.98L448.73 177.93L455.33 184.79L475.03 164.33L482.78 172.38L463.08 192.84Z" id="d8XOt1aAo2"></path><path d="M463.08 222.25L463.08 222.25L455.34 230.3L440.99 215.39L448.73 207.34L455.33 214.2L475.03 193.73L482.78 201.78L463.08 222.25Z" id="d1m0AZjW2W"></path><path d="M463.08 253.14L463.08 253.14L455.34 261.19L440.99 246.28L448.73 238.23L455.33 245.09L475.03 224.63L482.78 232.68L463.08 253.14Z" id="e2G05KtKqt"></path></defs><g><g><g><use xlink:href="#d1TLZ71hZ" opacity="1" fill="#ffffff" fill-opacity="1"></use><g><use xlink:href="#d1TLZ71hZ" opacity="1" fill-opacity="0" stroke="#ffffff" stroke-width="0" stroke-opacity="1"></use></g></g><g><use xlink:href="#cptaIoYj" opacity="1" fill="#ffffff" fill-opacity="1"></use></g><g><use xlink:href="#m3BU478rN" opacity="1" fill="#ffffff" fill-opacity="1"></use></g><g><use xlink:href="#e89ZZxhpag" opacity="1" fill="#ffffff" fill-opacity="1"></use></g><g><use xlink:href="#a1TiUm9zQg" opacity="1" fill="#ffffff" fill-opacity="1"></use></g><g><use xlink:href="#aCitFfMU8" opacity="1" fill="#ffffff" fill-opacity="1"></use></g><g><use xlink:href="#a1pfjUTMn" opacity="1" fill="#ffffff" fill-opacity="1"></use></g><g><use xlink:href="#aa7MLxuyd" opacity="1" fill="#ffffff" fill-opacity="1"></use></g><g><use xlink:href="#l9rWWfHIV" opacity="1" fill="#ffffff" fill-opacity="1"></use></g><g><use xlink:href="#az6mY06X1" opacity="1" fill="#ffffff" fill-opacity="1"></use></g><g><use xlink:href="#d8XOt1aAo2" opacity="1" fill="#ffffff" fill-opacity="1"></use></g><g><use xlink:href="#d1m0AZjW2W" opacity="1" fill="#ffffff" fill-opacity="1"></use></g><g><use xlink:href="#e2G05KtKqt" opacity="1" fill="#ffffff" fill-opacity="1"></use></g></g></g></svg>